<?xml version="1.0" encoding="UTF-8" standalone="no"?>
<!DOCTYPE svg PUBLIC "-//W3C//DTD SVG 1.1//EN" "http://www.w3.org/Graphics/SVG/1.1/DTD/svg11.dtd">
<svg width="100%" height="100%" viewBox="0 0 580 400" version="1.1" xmlns="http://www.w3.org/2000/svg" xmlns:xlink="http://www.w3.org/1999/xlink" xml:space="preserve" style="fill-rule:evenodd;clip-rule:evenodd;">
    <g>
        <path id="svg_2" d="M276.5,50C276.5,38.962 267.538,30 256.5,30L49.5,30C38.462,30 29.5,38.962 29.5,50L29.5,170C29.5,181.038 38.462,190 49.5,190L256.5,190C267.538,190 276.5,181.038 276.5,170L276.5,50Z" style="fill:rgb(142,142,142);stroke:black;stroke-width:1.5px;"/>
        <path id="svg_6" d="M547,50C547,38.962 538.038,30 527,30L320,30C308.962,30 300,38.962 300,50L300,170C300,181.038 308.962,190 320,190L527,190C538.038,190 547,181.038 547,170L547,50Z" style="fill:rgb(142,142,142);stroke:black;stroke-width:1.5px;"/>
        <path id="svg_7" d="M277,230C277,218.962 268.038,210 257,210L50,210C38.962,210 30,218.962 30,230L30,350C30,361.038 38.962,370 50,370L257,370C268.038,370 277,361.038 277,350L277,230Z" style="fill:rgb(142,142,142);stroke:black;stroke-width:1.5px;"/>
        <path id="svg_8" d="M547,229C547,217.962 538.038,209 527,209L320,209C308.962,209 300,217.962 300,229L300,349C300,360.038 308.962,369 320,369L527,369C538.038,369 547,360.038 547,349L547,229Z" style="fill:rgb(142,142,142);stroke:black;stroke-width:1.5px;"/>
        <path id="svg_9" d="M276.5,50C276.5,38.962 267.538,30 256.5,30L49.5,30C38.462,30 29.5,38.962 29.5,50L29.5,170C29.5,181.038 38.462,190 49.5,190L256.5,190C267.538,190 276.5,181.038 276.5,170L276.5,50Z" style="fill:rgb(142,142,142);stroke:black;stroke-width:1.5px;"/>
    </g>
</svg>
